<?xml version="1.0" standalone="no"?><!DOCTYPE svg PUBLIC "-//W3C//DTD SVG 1.1//EN" "http://www.w3.org/Graphics/SVG/1.1/DTD/svg11.dtd"><svg t="1688087540305" class="icon" viewBox="0 0 1024 1024" version="1.1" xmlns="http://www.w3.org/2000/svg" p-id="13575" xmlns:xlink="http://www.w3.org/1999/xlink" width="200" height="200"><path d="M554.80155875 952.315535c-6.09374906 55.35186937-83.42530406 50.41593281-86.41874156 0-0.0778125-38.34093375-0.0778125-601.30400344-0.0778125-601.30400344l-266.09997375 256.84122469c-41.69343375 35.91468375-91.34530313-21.49031062-60.32343188-59.26499438 117.85311375-114.27748875 329.33434312-318.75465656 334.22621719-323.48434312 19.51031063-21.19593563 50.22468281-22.29374813 70.98936844 0 38.81905875 37.53562125 326.90715562 315.30840656 335.65215469 325.30309312 29.21905969 36.32062125-18.02249813 90.06936656-58.35280688 59.78811938C813.97809594 601.35400719 554.88124625 351.00121906 554.88124625 351.00121906M141.12128656 35.12375l737.33242781 0 0 83.70561656L141.12128656 118.82936656 141.12128656 35.12375z" p-id="13576"></path></svg>