<?xml version="1.0" standalone="no"?><!DOCTYPE svg PUBLIC "-//W3C//DTD SVG 1.1//EN" "http://www.w3.org/Graphics/SVG/1.1/DTD/svg11.dtd"><svg t="1687339529242" class="icon" viewBox="0 0 1024 1024" version="1.1" xmlns="http://www.w3.org/2000/svg" p-id="13573" xmlns:xlink="http://www.w3.org/1999/xlink" width="200" height="200"><path d="M30.859947 0c50.20672 0.075093 88.773973 0.187733 116.8384 20.906667 44.591787 32.914773 43.615573 98.164053 57.02656 163.048106 26.258773 127.054507 36.54656 266.298027 61.19424 397.17888 7.365973 39.092907 15.07328 120.787627 19.47648 149.118294 5.092693 32.791893 20.86912 36.23936 54.244693 36.235946h559.138133c22.869333 0 50.070187 5.720747 50.070187 36.232534 0 29.719893-26.282667 37.625173-41.724587 37.625173h-329.64608c-107.52 0-210.650453-0.4096-256.590506-0.4096-55.555413 0-98.194773-32.89088-109.226667-112.46592C190.805333 576.617813 143.438507 258.116267 118.48704 108.6976c-5.352107-24.28928-12.0832-34.08896-32.290133-35.181227-20.06016-1.08544-22.10816-0.31744-53.981867-0.914773C-17.885867 63.648427-0.535893 4.283733 30.859947 0z m260.096 110.093653h627.29216c68.734293 0 114.609493 60.207787 104.31488 119.852374-10.78272 71.191893-20.35712 113.206613-34.768214 200.686933-10.123947 61.463893-13.523627 82.944-22.25152 135.168-11.175253 66.798933-69.727573 90.58304-101.53984 90.58304-106.496 8.277333-353.76128 26.477227-460.38016 34.839893-17.066667 1.49504-69.341867 12.950187-73.728-26.477226-5.761707-51.851947 40.30464-44.09344 75.093334-45.991254q113.353387-8.35584 226.717013-16.725333 93.866667-7.66976 187.774293-15.32928c20.114773-3.109547 42.752 1.6384 57.02656-6.97344 22.65088-13.673813 19.954347-56.552107 26.426027-86.401707q18.0736-103.816533 36.160853-207.64672c4.437333-21.674667 29.92128-102.63552-16.687786-103.130453-36.864-0.385707-81.114453 0-126.57664 0-171.987627-0.4608-332.898987 0.464213-504.89344 0-41.704107 0.013653-49.6128-72.45824 0.017066-72.45824z m30.603946 766.491307c100.529493-2.686293 109.643093 136.608427 9.495894 145.5616-52.814507 4.72064-82.117973-46.619307-72.0896-93.999787 6.912-32.65536 43.0592-50.879147 62.593706-51.565226z m510.45376 0c100.532907-2.686293 105.92256 130.256213 16.6912 146.3296-52.189867 9.403733-95.232-44.540587-79.27808-94.767787 10.09664-31.80544 33.006933-44.905813 62.58688-51.565226z" fill="#df3d3e" p-id="13574"></path></svg>