<?xml version="1.0" standalone="no"?><!DOCTYPE svg PUBLIC "-//W3C//DTD SVG 1.1//EN" "http://www.w3.org/Graphics/SVG/1.1/DTD/svg11.dtd"><svg t="1687339572435" class="icon" viewBox="0 0 1024 1024" version="1.1" xmlns="http://www.w3.org/2000/svg" p-id="13708" xmlns:xlink="http://www.w3.org/1999/xlink" width="200" height="200"><path d="M983.73333333 312L757.33333333 538.4c-16 16-40.8 16-56.8 0L474.93333333 312c-16-16-16-40.8 0-56.8L701.33333333 29.6c16-16 40.8-16 56.8 0L983.73333333 256C999.73333333 271.2 999.73333333 296.8 983.73333333 312zM401.33333333 972l-320 0c-22.4 0-40-17.6-40-40l0-320c0-22.4 17.6-40 40-40l320 0c22.4 0 40 17.6 40 40l0 320C441.33333333 954.4 423.73333333 972 401.33333333 972zM401.33333333 492l-320 0c-22.4 0-40-17.6-40-40l0-320c0-22.4 17.6-40 40-40l320 0c22.4 0 40 17.6 40 40l0 320C441.33333333 474.4 423.73333333 492 401.33333333 492zM561.33333333 572l320 0c22.4 0 40 17.6 40 40l0 320c0 22.4-17.6 40-40 40l-320 0c-22.4 0-40-17.6-40-40l0-320C521.33333333 589.6 538.93333333 572 561.33333333 572z" fill="#2094c7" p-id="13709"></path></svg>