<?xml version="1.0" standalone="no"?><!DOCTYPE svg PUBLIC "-//W3C//DTD SVG 1.1//EN" "http://www.w3.org/Graphics/SVG/1.1/DTD/svg11.dtd"><svg t="1687339583705" class="icon" viewBox="0 0 1118 1024" version="1.1" xmlns="http://www.w3.org/2000/svg" p-id="13847" xmlns:xlink="http://www.w3.org/1999/xlink" width="218.359375" height="200"><path d="M647.73502438 201.75734281C612.4925675 102.87353937 522.315905 32.29754188 417.02739219 32.29754188 281.180225 32.29754188 172.16706594 149.78627562 172.16706594 292.1968625 172.16706594 381.20348 214.09520375 459.52930156 277.82597375 505.81274281 133.59317938 566.33724219 32.9656475 714.08822563 32.9656475 886.76106219L101.72779437 886.76106219C101.72779437 715.86835813 224.15795844 573.45777125 380.13063125 553.87631563 381.80775687 553.87631563 423.73589563 550.31605063 458.95553094 553.87631563L462.30978312 553.87631563C482.79375406 556.98232625 502.64327375 562.17273031 521.65964656 569.24093844 506.29698687 539.59331656 496.22343031 506.33740344 492.81390219 470.93257156 469.72375625 481.91255562 444.07916094 488.01141969 417.02739219 488.01141969 314.72273563 488.01141969 232.54358469 400.78493469 232.54358469 292.19686156 232.54358469 183.60879031 314.72273563 96.38230437 417.02739219 96.38230437 500.00318563 96.38230437 569.73986844 153.76228344 593.12925781 233.38059969 609.85455875 220.52045281 628.17774125 209.84278062 647.73502438 201.75734281Z" p-id="13848"></path><path d="M834.26957281 612.76769938C898.00034375 566.48425813 939.9284825 488.15843562 939.9284825 399.15181906 939.9284825 254.96109969 829.23819781 137.47236594 693.39102875 137.47236594 557.54386156 137.47236594 448.5307025 254.96109969 448.5307025 397.37168656 448.5307025 486.37830406 490.45883938 564.70412656 554.18961031 610.98756687 409.95681594 671.51206625 309.32928406 819.26304969 309.32928406 991.93588625L309.32928406 991.93588625 378.09143094 991.93588625 378.09143094 991.93588625C378.09143094 821.04318219 500.52159406 678.63259531 656.49426781 659.05113969 658.17139344 659.05113969 700.09953219 655.49087563 735.3191675 659.05113969L738.67341969 659.05113969 738.67341969 659.05113969C891.29184219 682.19286031 1008.69062938 821.04318219 1008.69062938 990.15575375L1008.69062938 990.15575375 1079.12990094 990.15575375 1079.12990094 990.15575375C1077.45277437 819.26304969 976.82524344 671.51206625 834.26957281 612.76769938L834.26957281 612.76769938ZM693.39102875 593.18624375C591.08637219 593.18624375 508.90722125 505.95975969 508.90722125 397.37168562 508.90722125 288.78361438 591.08637219 201.55712937 693.39102875 201.55712937 795.69568625 201.55712937 877.87483719 288.7836125 877.87483719 397.37168562 877.87483719 505.95975969 795.69568625 593.18624375 693.39102875 593.18624375L693.39102875 593.18624375Z" p-id="13849"></path></svg>