<?xml version="1.0" standalone="no"?><!DOCTYPE svg PUBLIC "-//W3C//DTD SVG 1.1//EN" "http://www.w3.org/Graphics/SVG/1.1/DTD/svg11.dtd"><svg t="1687339639749" class="icon" viewBox="0 0 1024 1024" version="1.1" xmlns="http://www.w3.org/2000/svg" p-id="13983" xmlns:xlink="http://www.w3.org/1999/xlink" width="200" height="200"><path d="M757.76 1024H266.24C119.20384 1024 0 904.79616 0 757.76V266.24C0 119.20384 119.20384 0 266.24 0h491.52c147.03616 0 266.24 119.20384 266.24 266.24v491.52c0 147.03616-119.20384 266.24-266.24 266.24zM490.38336 286.72H304.54784C277.72928 286.72 256 308.72576 256 335.872V399.36v-40.96h293.55008L542.72 337.92c-11.69408-33.792-23.22432-50.05312-52.33664-51.2zM768 460.8a61.44 61.44 0 0 0-61.44-61.44H256v286.72a61.44 61.44 0 0 0 61.44 61.44h389.12a61.44 61.44 0 0 0 61.44-61.44V460.8zM660.48 665.6h-174.08a25.6 25.6 0 1 1 0-51.2h174.08a25.6 25.6 0 1 1 0 51.2z m0-122.88h-174.08a25.6 25.6 0 1 1 0-51.2h174.08a25.6 25.6 0 1 1 0 51.2z m-276.48 122.88h-20.48a25.6 25.6 0 1 1 0-51.2h20.48a25.6 25.6 0 1 1 0 51.2z m0-122.88h-20.48a25.6 25.6 0 1 1 0-51.2h20.48a25.6 25.6 0 1 1 0 51.2z" fill="#499BF9" p-id="13984"></path></svg>